<svg width="184" height="36" viewBox="0 0 184 36" fill="none" xmlns="http://www.w3.org/2000/svg">
<ellipse cx="20" cy="15.4025" rx="11" ry="10.5975" fill="#1565C0"/>
<rect width="2" height="35" transform="matrix(0.928914 0.370295 -0.610482 0.79203 22.0524 4)" fill="white"/>
<rect width="2" height="35" transform="matrix(0.928914 0.370295 -0.610482 0.79203 25.768 5.48117)" fill="white"/>
<rect width="2" height="35" transform="matrix(0.928914 0.370295 -0.610482 0.79203 29.4837 6.96237)" fill="white"/>
<path d="M43.954 16.058C44.8193 16.2193 45.5527 16.6593 46.154 17.378C46.7553 18.0967 47.056 18.9327 47.056 19.886C47.056 20.6633 46.858 21.3673 46.462 21.998C46.0807 22.614 45.516 23.1053 44.768 23.472C44.02 23.824 43.1253 24 42.084 24H36.76V8.622H41.93C43.4847 8.622 44.6653 8.98133 45.472 9.7C46.2933 10.4187 46.704 11.35 46.704 12.494C46.704 13.4473 46.4473 14.2247 45.934 14.826C45.4207 15.4127 44.7607 15.8233 43.954 16.058ZM38.3 15.42H41.886C42.9273 15.42 43.7267 15.178 44.284 14.694C44.856 14.1953 45.142 13.5133 45.142 12.648C45.142 11.7973 44.856 11.13 44.284 10.646C43.7267 10.162 42.9053 9.92 41.82 9.92H38.3V15.42ZM41.974 22.702C43.0887 22.702 43.954 22.438 44.57 21.91C45.2007 21.382 45.516 20.656 45.516 19.732C45.516 18.808 45.186 18.0747 44.526 17.532C43.8807 16.9747 43.008 16.696 41.908 16.696H38.3V22.702H41.974ZM55.145 24.176C54.0156 24.176 52.9963 23.9267 52.087 23.428C51.1923 22.9147 50.481 22.196 49.953 21.272C49.4396 20.3333 49.183 19.2407 49.183 17.994C49.183 16.7473 49.447 15.662 49.975 14.738C50.503 13.7993 51.2216 13.0807 52.131 12.582C53.0403 12.0687 54.0596 11.812 55.189 11.812C56.3183 11.812 57.3376 12.0687 58.247 12.582C59.171 13.0807 59.8896 13.7993 60.403 14.738C60.931 15.662 61.195 16.7473 61.195 17.994C61.195 19.226 60.931 20.3113 60.403 21.25C59.875 22.1887 59.149 22.9147 58.225 23.428C57.301 23.9267 56.2743 24.176 55.145 24.176ZM55.145 22.834C55.937 22.834 56.6703 22.658 57.345 22.306C58.0196 21.9393 58.5623 21.3967 58.973 20.678C59.3983 19.9447 59.611 19.05 59.611 17.994C59.611 16.938 59.4056 16.0507 58.995 15.332C58.5843 14.5987 58.0416 14.056 57.367 13.704C56.6923 13.3373 55.959 13.154 55.167 13.154C54.375 13.154 53.6416 13.3373 52.967 13.704C52.2923 14.056 51.7496 14.5987 51.339 15.332C50.943 16.0507 50.745 16.938 50.745 17.994C50.745 19.05 50.943 19.9447 51.339 20.678C51.7496 21.3967 52.285 21.9393 52.945 22.306C53.6196 22.658 54.353 22.834 55.145 22.834ZM69.6342 11.768C71.0715 11.768 72.2449 12.2153 73.1542 13.11C74.0635 13.99 74.5182 15.2733 74.5182 16.96V24H73.0002V17.136C73.0002 15.8307 72.6702 14.8333 72.0102 14.144C71.3649 13.4547 70.4775 13.11 69.3482 13.11C68.1895 13.11 67.2655 13.4767 66.5762 14.21C65.8869 14.9433 65.5422 16.0213 65.5422 17.444V24H64.0022V11.988H65.5422V14.034C65.9235 13.3007 66.4735 12.7433 67.1922 12.362C67.9109 11.966 68.7249 11.768 69.6342 11.768ZM87.7581 13.044C87.7581 14.364 87.3254 15.4273 86.4601 16.234C85.5947 17.0407 84.2967 17.444 82.5661 17.444H79.4641V24H77.9241V8.622H82.5661C84.2821 8.622 85.5727 9.02533 86.4381 9.832C87.3181 10.6387 87.7581 11.7093 87.7581 13.044ZM82.5661 16.124C84.9714 16.124 86.1741 15.0973 86.1741 13.044C86.1741 12.0173 85.8881 11.24 85.3161 10.712C84.7441 10.184 83.8274 9.92 82.5661 9.92H79.4641V16.124H82.5661ZM91.882 7.72V24H90.342V7.72H91.882ZM94.6654 17.972C94.6654 16.74 94.9074 15.662 95.3914 14.738C95.89 13.7993 96.572 13.0807 97.4374 12.582C98.3174 12.0687 99.3074 11.812 100.407 11.812C101.551 11.812 102.534 12.076 103.355 12.604C104.191 13.132 104.793 13.8067 105.159 14.628V11.988H106.699V24H105.159V21.338C104.778 22.1593 104.169 22.8413 103.333 23.384C102.512 23.912 101.529 24.176 100.385 24.176C99.3 24.176 98.3174 23.9193 97.4374 23.406C96.572 22.8927 95.89 22.1667 95.3914 21.228C94.9074 20.2893 94.6654 19.204 94.6654 17.972ZM105.159 17.994C105.159 17.026 104.961 16.1753 104.565 15.442C104.169 14.7087 103.627 14.144 102.937 13.748C102.263 13.352 101.515 13.154 100.693 13.154C99.8427 13.154 99.08 13.3447 98.4054 13.726C97.7307 14.1073 97.1954 14.6647 96.7994 15.398C96.418 16.1167 96.2274 16.9747 96.2274 17.972C96.2274 18.9547 96.418 19.82 96.7994 20.568C97.1954 21.3013 97.7307 21.866 98.4054 22.262C99.08 22.6433 99.8427 22.834 100.693 22.834C101.515 22.834 102.263 22.636 102.937 22.24C103.627 21.844 104.169 21.2793 104.565 20.546C104.961 19.8127 105.159 18.962 105.159 17.994ZM115.847 11.768C117.284 11.768 118.458 12.2153 119.367 13.11C120.276 13.99 120.731 15.2733 120.731 16.96V24H119.213V17.136C119.213 15.8307 118.883 14.8333 118.223 14.144C117.578 13.4547 116.69 13.11 115.561 13.11C114.402 13.11 113.478 13.4767 112.789 14.21C112.1 14.9433 111.755 16.0213 111.755 17.444V24H110.215V11.988H111.755V14.034C112.136 13.3007 112.686 12.7433 113.405 12.362C114.124 11.966 114.938 11.768 115.847 11.768ZM139.163 8.82V24H137.623V11.878L132.211 24H131.089L125.677 11.922V24H124.137V8.82H125.765L131.639 21.976L137.513 8.82H139.163ZM141.952 17.972C141.952 16.74 142.194 15.662 142.678 14.738C143.177 13.7993 143.859 13.0807 144.724 12.582C145.604 12.0687 146.594 11.812 147.694 11.812C148.838 11.812 149.821 12.076 150.642 12.604C151.478 13.132 152.08 13.8067 152.446 14.628V11.988H153.986V24H152.446V21.338C152.065 22.1593 151.456 22.8413 150.62 23.384C149.799 23.912 148.816 24.176 147.672 24.176C146.587 24.176 145.604 23.9193 144.724 23.406C143.859 22.8927 143.177 22.1667 142.678 21.228C142.194 20.2893 141.952 19.204 141.952 17.972ZM152.446 17.994C152.446 17.026 152.248 16.1753 151.852 15.442C151.456 14.7087 150.914 14.144 150.224 13.748C149.55 13.352 148.802 13.154 147.98 13.154C147.13 13.154 146.367 13.3447 145.692 13.726C145.018 14.1073 144.482 14.6647 144.086 15.398C143.705 16.1167 143.514 16.9747 143.514 17.972C143.514 18.9547 143.705 19.82 144.086 20.568C144.482 21.3013 145.018 21.866 145.692 22.262C146.367 22.6433 147.13 22.834 147.98 22.834C148.802 22.834 149.55 22.636 150.224 22.24C150.914 21.844 151.456 21.2793 151.852 20.546C152.248 19.8127 152.446 18.962 152.446 17.994ZM159.042 7.72V24H157.502V7.72H159.042ZM163.3 9.722C162.992 9.722 162.728 9.612 162.508 9.392C162.288 9.172 162.178 8.90067 162.178 8.578C162.178 8.25533 162.288 7.99133 162.508 7.786C162.728 7.566 162.992 7.456 163.3 7.456C163.608 7.456 163.872 7.566 164.092 7.786C164.312 7.99133 164.422 8.25533 164.422 8.578C164.422 8.90067 164.312 9.172 164.092 9.392C163.872 9.612 163.608 9.722 163.3 9.722ZM164.07 11.988V24H162.53V11.988H164.07ZM173.189 11.768C174.626 11.768 175.8 12.2153 176.709 13.11C177.618 13.99 178.073 15.2733 178.073 16.96V24H176.555V17.136C176.555 15.8307 176.225 14.8333 175.565 14.144C174.92 13.4547 174.032 13.11 172.903 13.11C171.744 13.11 170.82 13.4767 170.131 14.21C169.442 14.9433 169.097 16.0213 169.097 17.444V24H167.557V11.988H169.097V14.034C169.478 13.3007 170.028 12.7433 170.747 12.362C171.466 11.966 172.28 11.768 173.189 11.768Z" fill="black"/>
</svg>
